{"extensionsUsed" : ["KHR_materials_specular", "KHR_materials_ior"], "accessors" : [{"bufferView" : 0, "byteOffset" : 0, "componentType" : 5123, "count" : 5832, "type" : "SCALAR", "max" : [4642], "min" : [0]}, {"bufferView" : 1, "byteOffset" : 0, "componentType" : 5126, "count" : 4643, "type" : "VEC3", "max" : [1.1620393991470337, 1.1620393991470337, -0.6538654565811157], "min" : [-1.1620393991470337, -1.1620393991470337, -2.532043695449829], "name" : "POSITION"}, {"bufferView" : 1, "byteOffset" : 12, "componentType" : 5126, "count" : 4643, "type" : "VEC3", "max" : [1.0000044107437134, 1.0000044107437134, 0.5870059132575989], "min" : [-1.0000044107437134, -1.0000044107437134, -1.0000044107437134], "name" : "NORMAL"}, {"bufferView" : 1, "byteOffset" : 24, "componentType" : 5126, "count" : 4643, "type" : "VEC2", "max" : [0.8043363690376282, 0.7923410534858704], "min" : [0.04877174645662308, 0.04923045635223389], "name" : "TEXCOORD_0"}, {"bufferView" : 0, "byteOffset" : 11664, "componentType" : 5123, "count" : 15360, "type" : "SCALAR", "max" : [12362], "min" : [0]}, {"bufferView" : 2, "byteOffset" : 0, "componentType" : 5126, "count" : 12363, "type" : "VEC3", "max" : [2.3483712673187256, 2.3483712673187256, -2.906199654262309E-07], "min" : [-2.3483712673187256, -2.4207916259765625, -2.6559929847717285], "name" : "POSITION"}, {"bufferView" : 2, "byteOffset" : 12, "componentType" : 5126, "count" : 12363, "type" : "VEC3", "max" : [1.0000044107437134, 1.0000044107437134, 1.0000044107437134], "min" : [-1.0000044107437134, -1.0000044107437134, -1.0000044107437134], "name" : "NORMAL"}, {"bufferView" : 2, "byteOffset" : 24, "componentType" : 5126, "count" : 12363, "type" : "VEC2", "max" : [0.9596816301345825, 0.9599999785423279], "min" : [0.04031835123896599, 0.04000002145767212], "name" : "TEXCOORD_0"}, {"bufferView" : 0, "byteOffset" : 42384, "componentType" : 5123, "count" : 10272, "type" : "SCALAR", "max" : [8495], "min" : [0]}, {"bufferView" : 3, "byteOffset" : 0, "componentType" : 5126, "count" : 8496, "type" : "VEC3", "max" : [0.9796158671379089, 0.9562090039253235, -1.4457619190216064], "min" : [-0.9530893564224243, -0.9515612125396729, -1.537105917930603], "name" : "POSITION"}, {"bufferView" : 3, "byteOffset" : 12, "componentType" : 5126, "count" : 8496, "type" : "VEC3", "max" : [0.9985126852989197, 1.0000044107437134, 1.0000044107437134], "min" : [-1.0000044107437134, -1.0000044107437134, -1.0000044107437134], "name" : "NORMAL"}, {"bufferView" : 3, "byteOffset" : 24, "componentType" : 5126, "count" : 8496, "type" : "VEC2", "max" : [0.9599445462226868, 0.9599999785423279], "min" : [0.040055468678474426, 0.04000002145767212], "name" : "TEXCOORD_0"}, {"bufferView" : 0, "byteOffset" : 62928, "componentType" : 5123, "count" : 11142, "type" : "SCALAR", "max" : [8931], "min" : [0]}, {"bufferView" : 4, "byteOffset" : 0, "componentType" : 5126, "count" : 8932, "type" : "VEC3", "max" : [3.7645649909973145, 2.43626070022583, -0.6538654565811157], "min" : [-3.7645649909973145, -2.43626070022583, -20.590999603271484], "name" : "POSITION"}, {"bufferView" : 4, "byteOffset" : 12, "componentType" : 5126, "count" : 8932, "type" : "VEC3", "max" : [1.0000044107437134, 1.0000044107437134, 1.0000044107437134], "min" : [-1.0000044107437134, -1.0000044107437134, -1.0000044107437134], "name" : "NORMAL"}, {"bufferView" : 4, "byteOffset" : 24, "componentType" : 5126, "count" : 8932, "type" : "VEC2", "max" : [0.9599999785423279, 0.9544366598129272], "min" : [0.03999999910593033, 0.045563340187072754], "name" : "TEXCOORD_0"}, {"bufferView" : 0, "byteOffset" : 85212, "componentType" : 5123, "count" : 15504, "type" : "SCALAR", "max" : [12476], "min" : [0]}, {"bufferView" : 5, "byteOffset" : 0, "componentType" : 5126, "count" : 12477, "type" : "VEC3", "max" : [2.3483712673187256, 2.3483712673187256, -2.906199654262309E-07], "min" : [-2.3483712673187256, -2.4207916259765625, -2.6559929847717285], "name" : "POSITION"}, {"bufferView" : 5, "byteOffset" : 12, "componentType" : 5126, "count" : 12477, "type" : "VEC3", "max" : [1.0000044107437134, 1.0000044107437134, 1.0000044107437134], "min" : [-1.0000044107437134, -1.0000044107437134, -1.0000044107437134], "name" : "NORMAL"}, {"bufferView" : 5, "byteOffset" : 24, "componentType" : 5126, "count" : 12477, "type" : "VEC2", "max" : [0.9596816301345825, 0.9599999785423279], "min" : [0.03999999910593033, 0.04000002145767212], "name" : "TEXCOORD_0"}, {"bufferView" : 0, "byteOffset" : 116220, "componentType" : 5123, "count" : 25680, "type" : "SCALAR", "max" : [21185], "min" : [0]}, {"bufferView" : 6, "byteOffset" : 0, "componentType" : 5126, "count" : 21186, "type" : "VEC3", "max" : [3.7256784439086914, 0.032987289130687714, -20.104398727416992], "min" : [-3.7375199794769287, -0.03138480708003044, -20.579612731933594], "name" : "POSITION"}, {"bufferView" : 6, "byteOffset" : 12, "componentType" : 5126, "count" : 21186, "type" : "VEC3", "max" : [1.0000030994415283, 1.0000044107437134, 1.0000044107437134], "min" : [-1.0000030994415283, -1.0000044107437134, -1.0000044107437134], "name" : "NORMAL"}, {"bufferView" : 6, "byteOffset" : 24, "componentType" : 5126, "count" : 21186, "type" : "VEC2", "max" : [0.8105451464653015, 0.550000011920929], "min" : [0.8014548420906067, 0.44999998807907104], "name" : "TEXCOORD_0"}], "asset" : {"generator" : "Aspose.3D 23.7.0", "version" : "2.0"}, "buffers" : [{"uri" : "data:application/octet-stream;base64,", "byteLength" : 2848888}], "bufferViews" : [{"buffer" : 0, "byteOffset" : 0, "byteLength" : 167580, "target" : 34963}, {"buffer" : 0, "byteOffset" : 167584, "byteLength" : 186624, "byteStride" : 32, "target" : 34962}, {"buffer" : 0, "byteOffset" : 354212, "byteLength" : 491520, "byteStride" : 32, "target" : 34962}, {"buffer" : 0, "byteOffset" : 845736, "byteLength" : 328704, "byteStride" : 32, "target" : 34962}, {"buffer" : 0, "byteOffset" : 1174444, "byteLength" : 356544, "byteStride" : 32, "target" : 34962}, {"buffer" : 0, "byteOffset" : 1530992, "byteLength" : 496128, "byteStride" : 32, "target" : 34962}, {"buffer" : 0, "byteOffset" : 2027124, "byteLength" : 821760, "byteStride" : 32, "target" : 34962}], "materials" : [{"name" : "Default", "pbrMetallicRoughness" : {"baseColorFactor" : [1, 1, 1, 1], "metallicFactor" : 1, "roughnessFactor" : 1}, "emissiveFactor" : [0, 0, 0], "alphaMode" : "OPAQUE", "doubleSided" : true}, {"name" : "Material.001", "extensions" : {"KHR_materials_specular" : {"specularColorFactor" : [2.371357614441398, 2.371357614441398, 2.371357614441398]}, "KHR_materials_ior" : {"ior" : 1.4500000476837158}}, "pbrMetallicRoughness" : {"baseColorFactor" : [0.800000011920929, 0.800000011920929, 0.800000011920929, 1], "metallicFactor" : 1, "roughnessFactor" : 0.5527864098548889}, "emissiveFactor" : [0, 0, 0], "alphaMode" : "OPAQUE", "doubleSided" : true}, {"name" : "Default", "pbrMetallicRoughness" : {"baseColorFactor" : [1, 1, 1, 1], "metallicFactor" : 1, "roughnessFactor" : 1}, "emissiveFactor" : [0, 0, 0], "alphaMode" : "OPAQUE", "doubleSided" : true}, {"name" : "Default", "pbrMetallicRoughness" : {"baseColorFactor" : [1, 1, 1, 1], "metallicFactor" : 1, "roughnessFactor" : 1}, "emissiveFactor" : [0, 0, 0], "alphaMode" : "OPAQUE", "doubleSided" : true}, {"name" : "Material.001", "extensions" : {"KHR_materials_specular" : {"specularColorFactor" : [2.371357614441398, 2.371357614441398, 2.371357614441398]}, "KHR_materials_ior" : {"ior" : 1.4500000476837158}}, "pbrMetallicRoughness" : {"baseColorFactor" : [0.800000011920929, 0.800000011920929, 0.800000011920929, 1], "metallicFactor" : 1, "roughnessFactor" : 0.5527864098548889}, "emissiveFactor" : [0, 0, 0], "alphaMode" : "OPAQUE", "doubleSided" : true}, {"name" : "grips", "extensions" : {"KHR_materials_specular" : {"specularColorFactor" : [2.371357614441398, 2.371357614441398, 2.371357614441398]}, "KHR_materials_ior" : {"ior" : 1.4500000476837158}}, "pbrMetallicRoughness" : {"baseColorFactor" : [0.800000011920929, 0.800000011920929, 0.800000011920929, 1], "metallicFactor" : 1, "roughnessFactor" : 0.5527864098548889}, "emissiveFactor" : [0, 0, 0], "alphaMode" : "OPAQUE", "doubleSided" : true}], "meshes" : [{"primitives" : [{"attributes" : {"POSITION" : 1, "NORMAL" : 2, "TEXCOORD_0" : 3}, "indices" : 0, "material" : 0, "mode" : 4}, {"attributes" : {"POSITION" : 5, "NORMAL" : 6, "TEXCOORD_0" : 7}, "indices" : 4, "material" : 1, "mode" : 4}]}, {"primitives" : [{"attributes" : {"POSITION" : 9, "NORMAL" : 10, "TEXCOORD_0" : 11}, "indices" : 8, "material" : 2, "mode" : 4}]}, {"primitives" : [{"attributes" : {"POSITION" : 13, "NORMAL" : 14, "TEXCOORD_0" : 15}, "indices" : 12, "material" : 3, "mode" : 4}, {"attributes" : {"POSITION" : 17, "NORMAL" : 18, "TEXCOORD_0" : 19}, "indices" : 16, "material" : 4, "mode" : 4}, {"attributes" : {"POSITION" : 21, "NORMAL" : 22, "TEXCOORD_0" : 23}, "indices" : 20, "material" : 5, "mode" : 4}]}], "nodes" : [{"mesh" : 0, "name" : "cap (3)"}, {"mesh" : 1, "name" : "stamp"}, {"matrix" : [0.2684938907623291, 0, 0, 0, 0, 0.2684938907623291, 0, 0, 0, 0, 0.2684938907623291, 0, 0, 0, 0, 1], "mesh" : 2, "name" : "tube (2)"}, {"children" : [0, 1, 2], "matrix" : [0.27155187726020813, 0, 0, 0, 0, -3.648539970505039E-08, 0.27155191374560783, 0, 0, -0.27155191374560783, -3.648539970505039E-08, 0, 0, 0, 0, 1], "name" : "tube-006"}], "scene" : 0, "scenes" : [{"nodes" : [3]}]}